<?xml version="1.0"?>
<svg xmlns="http://www.w3.org/2000/svg" id="outline" viewBox="0 0 512 512" width="512" height="512"><path d="M480,136a7.99978,7.99978,0,0,0-12.7998-6.3999l-16.70313,12.52734A128.30941,128.30941,0,0,0,440,134.1618V88a56,56,0,0,0-112,0v24H312V88a56,56,0,0,0-112,0v24H184V88A56,56,0,0,0,72,88v46.22577a127.96166,127.96166,0,0,0,.31787,211.835A56.35641,56.35641,0,0,0,72,352v48a24.0275,24.0275,0,0,0,24,24h24v24H80v16h8v8a8,8,0,0,0,16,0v-8h48v8a8,8,0,0,0,16,0v-8h8V448H136V424h24a24.0275,24.0275,0,0,0,24-24V368h16v32a24.0275,24.0275,0,0,0,24,24h24v24H208v16h8v8a8,8,0,0,0,16,0v-8h48v8a8,8,0,0,0,16,0v-8h8V448H264V424h24a24.0275,24.0275,0,0,0,24-24V368h16v32a24.0275,24.0275,0,0,0,24,24h24v24H336v16h8v8a8,8,0,0,0,16,0v-8h48v8a8,8,0,0,0,16,0v-8h8V448H392V424h24a24.0275,24.0275,0,0,0,24-24V352a56.35641,56.35641,0,0,0-.31787-5.93921A128.03065,128.03065,0,0,0,480,178.02325Zm-32,27.99982L464,152v52l-16,12.00012ZM344,88a40,40,0,0,1,80,0v36.87677A127.73331,127.73331,0,0,0,368,112H344ZM216,88a40,40,0,0,1,80,0v24H216ZM88,88a40,40,0,0,1,80,0v24H144a127.22333,127.22333,0,0,0-56,12.91815Zm80,312a8.00917,8.00917,0,0,1-8,8H136V368H120v40H96a8.00917,8.00917,0,0,1-8-8V352a40,40,0,0,1,80,0Zm-16-98.58569a55.87592,55.87592,0,0,0-40-3.07294V283.31348L123.31348,272H152Zm88-3.07294A56.202,56.202,0,0,0,210.08325,320H200V283.314L211.31348,272H240ZM296,400a8.00917,8.00917,0,0,1-8,8H264V368H248v40H224a8.00917,8.00917,0,0,1-8-8V352a40,40,0,0,1,80,0Zm-8-93.91675V283.314L299.31348,272H328v48H301.91675A56.45045,56.45045,0,0,0,288,306.08325ZM312,352a55.80062,55.80062,0,0,0-2.34131-16h20.68262A55.80062,55.80062,0,0,0,328,352Zm112,48a8.00917,8.00917,0,0,1-8,8H392V368H376v40H352a8.00917,8.00917,0,0,1-8-8V352a40,40,0,0,1,80,0Zm-8-93.91675a55.74209,55.74209,0,0,0-40-9.50268V283.314L387.31348,272H416Zm19.28271,23.45587A55.92359,55.92359,0,0,0,432,323.19019V264a8.00008,8.00008,0,0,0-8-8H384a8.00076,8.00076,0,0,0-5.65723,2.34326l-16,16A8.00035,8.00035,0,0,0,360,280v21.41431a56.25588,56.25588,0,0,0-16,11.4472V264a8.00008,8.00008,0,0,0-8-8H296a8.00076,8.00076,0,0,0-5.65723,2.34326l-16,16A8.00035,8.00035,0,0,0,272,280v18.34137A55.8045,55.8045,0,0,0,256,296V264a8.00008,8.00008,0,0,0-8-8H208a8.00076,8.00076,0,0,0-5.65723,2.34326l-16,16A8.00035,8.00035,0,0,0,184,280v48a8.00008,8.00008,0,0,0,8,8h10.34131A55.80062,55.80062,0,0,0,200,352H184a55.80492,55.80492,0,0,0-16-39.13849V264a8.00008,8.00008,0,0,0-8-8H120a8.00076,8.00076,0,0,0-5.65723,2.34326l-16,16A8.00035,8.00035,0,0,0,96,280v26.08325a56.32873,56.32873,0,0,0-19.28271,23.45587A112.00081,112.00081,0,0,1,144,128H368a111.59455,111.59455,0,0,1,69.27954,24H384a8.00008,8.00008,0,0,0-8,8v72a8.00008,8.00008,0,0,0,8,8h56a7.95378,7.95378,0,0,0,4.79468-1.60693l.00512.00683,32-24c.07032-.05273.1316-.11426.2-.16907a112.03341,112.03341,0,0,1-41.717,115.30829ZM432,168v56H392V168Z"/><path d="M160,144H104a8.00008,8.00008,0,0,0-8,8v48a8.00035,8.00035,0,0,0,2.34277,5.65674l16,16A8.00076,8.00076,0,0,0,120,224h40a8.00008,8.00008,0,0,0,8-8V152A8.00008,8.00008,0,0,0,160,144Zm-8,64H123.31348L112,196.686V160h40Z"/><path d="M248,144H192a8.00008,8.00008,0,0,0-8,8v48a8.00035,8.00035,0,0,0,2.34277,5.65674l16,16A8.00076,8.00076,0,0,0,208,224h40a8.00008,8.00008,0,0,0,8-8V152A8.00008,8.00008,0,0,0,248,144Zm-8,64H211.31348L200,196.686V160h40Z"/><path d="M336,144H280a8.00008,8.00008,0,0,0-8,8v48a8.00035,8.00035,0,0,0,2.34277,5.65674l16,16A8.00076,8.00076,0,0,0,296,224h40a8.00008,8.00008,0,0,0,8-8V152A8.00008,8.00008,0,0,0,336,144Zm-8,64H299.31348L288,196.686V160h40Z"/><rect x="400" y="184" width="16" height="24"/></svg>
