<svg id="Capa_1" enable-background="new 0 0 509.578 509.578" height="512" viewBox="0 0 509.578 509.578" width="512" xmlns="http://www.w3.org/2000/svg"><g><path d="m180.386 175.903h-29.903v-15.264h209.459v15.264h-30.23v15h45.23v-157.609h-239.459v157.609h44.903zm179.556-127.609v97.345h-209.459v-97.345z"/><path d="m509.578 220.718h-14.366v-59.719h-29.948v-29.719h-30.051v-30h-45v119.438h-67.5v-19.845c0-13.555-11.028-24.583-24.583-24.583h-86.833c-13.555 0-24.583 11.028-24.583 24.583v19.845h-186.714v45.296h29.416v210.271h127.796v-180.402h29.5v15.406h45.5v14.667h-59.327v45.333h74.327v75.005h-45v29.495h15v-14.495h30v14.495h15v-14.495h30v14.495h15v-29.495h-45v-75.005h75.328v-45.333h-60.328v-14.667h45.5v-15.406h29.5v180.401h128.103v-210.27h29.263zm-29.366-44.719v44.719h-14.948v-44.719zm-74.999-59.719h15v74.5h15v-44.5h15.051v74.438h-15.051v-14.938h-15v14.938h-15zm-390.213 119.438h171.712v15.296h-171.712zm127.212 225.566h-67.666v-105.493h-15v105.494h-15.13v-195.271h15.13v46.278h15v-16.409h67.667v165.401zm-67.666-180.401v-14.869h112.167v14.869zm113.339 60.072h44.327v15.333h-44.327zm134.656 0v15.333h-45.328v-15.333zm-14.829-44.666h-30.5v-45.664h-15v105.664h-15v-135.58h15v16.25h15v-31.25h-45v90.581h-30.5v-95.416c0-5.284 4.299-9.583 9.583-9.583h86.833c5.284 0 9.583 4.299 9.583 9.583v95.415zm15-30.275h112.5v14.869h-112.5zm44.5 195.27v-45.257h15v-15h-15v-45.072h37.5v-15h-37.5v-45.072h68v45.072h-15.5v15h15.5v45.072h-38.5v15h38.5v45.257zm98.103 0h-15.103v-195.27h15.103zm29.263-210.27h-171.866v-15.296h171.866z"/><path d="m59.546 326.792h15v15h-15z"/><path d="m78.174 220.708c17.422 0 34.172-4.639 40.324-23.093 3.732-11.196 1.723-25.128 1.723-36.722h-75.796v14.395h-14.713v15h14.878c1.678 17.053 16.098 30.42 33.584 30.42zm-18.749-44.814h45.796c0 16.59-3.274 29.814-22.898 29.814-19.588 0-22.898-13.223-22.898-29.814z"/><path d="m60.221 115.717h15v30h-15z"/><path d="m164.712 93.096h15v30h-15z"/><path d="m164.712 62.793h15v14.999h-15z"/><path d="m90.221 100.717h15v45h-15z"/><path d="m112.212 371.116h15v14.935h-15z"/></g></svg>